<?xml version="1.0" encoding="UTF-8"?>
<svg xmlns="http://www.w3.org/2000/svg" width="965" height="454" viewBox="0 0 965 454" version="1.1">
  <title>Ravian Logo</title>
  <desc>Vectorized from supplied Ravian logo image. Transparent background, black filled paths.</desc>
  <g fill="#111111" fill-rule="evenodd" stroke="none">
  <path d="M 12.0 218.0 L 12.0 219.0 L 54.0 219.0 L 55.0 218.0 L 67.0 218.0 L 68.0 217.0 L 77.0 217.0 L 78.0 216.0 L 87.0 216.0 L 88.0 215.0 L 96.0 215.0 L 97.0 214.0 L 106.0 214.0 L 107.0 213.0 L 115.0 213.0 L 116.0 212.0 L 127.0 212.0 L 128.0 211.0 L 138.0 211.0 L 139.0 210.0 L 153.0 210.0 L 154.0 209.0 L 196.0 209.0 L 197.0 210.0 L 204.0 210.0 L 205.0 211.0 L 211.0 211.0 L 212.0 212.0 L 215.0 212.0 L 216.0 213.0 L 223.0 214.0 L 224.0 215.0 L 226.0 215.0 L 236.0 220.0 L 238.0 222.0 L 239.0 222.0 L 248.0 231.0 L 251.0 237.0 L 251.0 239.0 L 252.0 240.0 L 252.0 243.0 L 253.0 244.0 L 253.0 252.0 L 252.0 253.0 L 252.0 256.0 L 251.0 257.0 L 250.0 262.0 L 248.0 264.0 L 247.0 267.0 L 238.0 276.0 L 237.0 276.0 L 232.0 280.0 L 226.0 283.0 L 224.0 283.0 L 223.0 284.0 L 221.0 284.0 L 217.0 286.0 L 214.0 286.0 L 213.0 287.0 L 210.0 287.0 L 209.0 288.0 L 204.0 288.0 L 203.0 289.0 L 197.0 289.0 L 196.0 290.0 L 185.0 290.0 L 184.0 291.0 L 169.0 291.0 L 169.0 292.0 L 183.0 306.0 L 183.0 307.0 L 241.0 365.0 L 242.0 365.0 L 249.0 372.0 L 250.0 372.0 L 255.0 377.0 L 256.0 377.0 L 265.0 385.0 L 266.0 385.0 L 273.0 391.0 L 274.0 391.0 L 276.0 393.0 L 277.0 393.0 L 288.0 401.0 L 291.0 402.0 L 293.0 404.0 L 296.0 405.0 L 298.0 407.0 L 324.0 420.0 L 326.0 420.0 L 334.0 424.0 L 336.0 424.0 L 337.0 425.0 L 339.0 425.0 L 340.0 426.0 L 342.0 426.0 L 343.0 427.0 L 345.0 427.0 L 346.0 428.0 L 348.0 428.0 L 349.0 429.0 L 351.0 429.0 L 355.0 431.0 L 358.0 431.0 L 362.0 433.0 L 365.0 433.0 L 366.0 434.0 L 369.0 434.0 L 370.0 435.0 L 373.0 435.0 L 374.0 436.0 L 383.0 437.0 L 384.0 438.0 L 389.0 438.0 L 390.0 439.0 L 396.0 439.0 L 397.0 440.0 L 406.0 440.0 L 407.0 441.0 L 413.0 441.0 L 413.0 440.0 L 410.0 440.0 L 409.0 439.0 L 405.0 439.0 L 404.0 438.0 L 397.0 437.0 L 393.0 435.0 L 390.0 435.0 L 389.0 434.0 L 387.0 434.0 L 386.0 433.0 L 384.0 433.0 L 383.0 432.0 L 378.0 431.0 L 375.0 429.0 L 373.0 429.0 L 372.0 428.0 L 367.0 427.0 L 362.0 424.0 L 360.0 424.0 L 338.0 413.0 L 336.0 411.0 L 331.0 409.0 L 326.0 405.0 L 323.0 404.0 L 321.0 402.0 L 320.0 402.0 L 318.0 400.0 L 314.0 398.0 L 311.0 395.0 L 307.0 393.0 L 299.0 386.0 L 298.0 386.0 L 293.0 381.0 L 292.0 381.0 L 288.0 377.0 L 287.0 377.0 L 277.0 367.0 L 276.0 367.0 L 240.0 331.0 L 240.0 330.0 L 228.0 318.0 L 228.0 317.0 L 211.0 299.0 L 212.0 297.0 L 224.0 297.0 L 225.0 296.0 L 232.0 296.0 L 233.0 295.0 L 242.0 294.0 L 243.0 293.0 L 245.0 293.0 L 246.0 292.0 L 248.0 292.0 L 249.0 291.0 L 254.0 290.0 L 264.0 285.0 L 266.0 283.0 L 270.0 281.0 L 280.0 271.0 L 280.0 270.0 L 282.0 268.0 L 285.0 262.0 L 286.0 257.0 L 287.0 256.0 L 287.0 250.0 L 288.0 249.0 L 288.0 245.0 L 287.0 244.0 L 287.0 238.0 L 286.0 237.0 L 285.0 232.0 L 282.0 226.0 L 280.0 224.0 L 280.0 223.0 L 271.0 214.0 L 270.0 214.0 L 265.0 210.0 L 255.0 205.0 L 253.0 205.0 L 250.0 203.0 L 248.0 203.0 L 247.0 202.0 L 244.0 202.0 L 240.0 200.0 L 231.0 199.0 L 230.0 198.0 L 225.0 198.0 L 224.0 197.0 L 217.0 197.0 L 216.0 196.0 L 202.0 196.0 L 201.0 195.0 L 176.0 195.0 L 175.0 196.0 L 158.0 196.0 L 157.0 197.0 L 147.0 197.0 L 146.0 198.0 L 137.0 198.0 L 136.0 199.0 L 130.0 199.0 L 129.0 200.0 L 123.0 200.0 L 122.0 201.0 L 115.0 201.0 L 114.0 202.0 L 109.0 202.0 L 108.0 203.0 L 103.0 203.0 L 102.0 204.0 L 97.0 204.0 L 96.0 205.0 L 91.0 205.0 L 90.0 206.0 L 85.0 206.0 L 84.0 207.0 L 79.0 207.0 L 78.0 208.0 L 73.0 208.0 L 72.0 209.0 L 67.0 209.0 L 66.0 210.0 L 61.0 210.0 L 60.0 211.0 L 55.0 211.0 L 54.0 212.0 L 49.0 212.0 L 48.0 213.0 L 43.0 213.0 L 42.0 214.0 L 37.0 214.0 L 36.0 215.0 L 31.0 215.0 L 30.0 216.0 L 25.0 216.0 L 24.0 217.0 L 18.0 217.0 L 17.0 218.0 Z"/>
  <path d="M 697.0 271.0 L 695.0 275.0 L 695.0 279.0 L 694.0 280.0 L 694.0 283.0 L 693.0 284.0 L 693.0 288.0 L 692.0 290.0 L 693.0 290.0 L 694.0 288.0 L 702.0 280.0 L 703.0 280.0 L 705.0 278.0 L 711.0 275.0 L 713.0 275.0 L 714.0 274.0 L 717.0 274.0 L 718.0 273.0 L 735.0 273.0 L 736.0 274.0 L 739.0 274.0 L 745.0 277.0 L 751.0 282.0 L 751.0 283.0 L 753.0 285.0 L 755.0 289.0 L 755.0 291.0 L 756.0 292.0 L 756.0 295.0 L 757.0 296.0 L 757.0 310.0 L 756.0 311.0 L 751.0 311.0 L 750.0 312.0 L 736.0 312.0 L 735.0 313.0 L 727.0 313.0 L 726.0 314.0 L 721.0 314.0 L 720.0 315.0 L 716.0 315.0 L 715.0 316.0 L 712.0 316.0 L 711.0 317.0 L 709.0 317.0 L 708.0 318.0 L 706.0 318.0 L 705.0 319.0 L 700.0 320.0 L 694.0 323.0 L 689.0 327.0 L 688.0 327.0 L 683.0 332.0 L 683.0 333.0 L 681.0 335.0 L 679.0 339.0 L 679.0 341.0 L 678.0 342.0 L 678.0 346.0 L 677.0 347.0 L 677.0 352.0 L 678.0 353.0 L 678.0 357.0 L 682.0 365.0 L 689.0 372.0 L 697.0 376.0 L 699.0 376.0 L 700.0 377.0 L 704.0 377.0 L 705.0 378.0 L 723.0 378.0 L 724.0 377.0 L 728.0 377.0 L 729.0 376.0 L 732.0 376.0 L 733.0 375.0 L 735.0 375.0 L 745.0 370.0 L 747.0 368.0 L 751.0 366.0 L 756.0 361.0 L 757.0 362.0 L 757.0 365.0 L 758.0 366.0 L 758.0 368.0 L 760.0 372.0 L 763.0 375.0 L 767.0 377.0 L 770.0 377.0 L 771.0 378.0 L 780.0 378.0 L 781.0 377.0 L 784.0 377.0 L 790.0 374.0 L 792.0 372.0 L 793.0 372.0 L 795.0 370.0 L 795.0 369.0 L 793.0 369.0 L 792.0 370.0 L 786.0 370.0 L 784.0 369.0 L 781.0 366.0 L 779.0 362.0 L 779.0 300.0 L 778.0 299.0 L 778.0 292.0 L 777.0 291.0 L 776.0 286.0 L 774.0 282.0 L 772.0 280.0 L 772.0 279.0 L 766.0 273.0 L 765.0 273.0 L 763.0 271.0 L 757.0 268.0 L 755.0 268.0 L 751.0 266.0 L 748.0 266.0 L 747.0 265.0 L 741.0 265.0 L 740.0 264.0 L 724.0 264.0 L 723.0 265.0 L 717.0 265.0 L 716.0 266.0 L 712.0 266.0 L 711.0 267.0 L 708.0 267.0 L 707.0 268.0 L 705.0 268.0 L 704.0 269.0 L 702.0 269.0 L 701.0 270.0 L 699.0 270.0 Z"/>
  <path d="M 343.0 271.0 L 341.0 275.0 L 341.0 279.0 L 340.0 280.0 L 340.0 283.0 L 339.0 284.0 L 339.0 288.0 L 338.0 290.0 L 339.0 290.0 L 341.0 288.0 L 341.0 287.0 L 348.0 280.0 L 349.0 280.0 L 351.0 278.0 L 357.0 275.0 L 359.0 275.0 L 360.0 274.0 L 363.0 274.0 L 364.0 273.0 L 382.0 273.0 L 383.0 274.0 L 385.0 274.0 L 391.0 277.0 L 397.0 282.0 L 397.0 283.0 L 399.0 285.0 L 402.0 291.0 L 402.0 294.0 L 403.0 295.0 L 403.0 310.0 L 402.0 311.0 L 397.0 311.0 L 396.0 312.0 L 382.0 312.0 L 381.0 313.0 L 373.0 313.0 L 372.0 314.0 L 367.0 314.0 L 366.0 315.0 L 362.0 315.0 L 361.0 316.0 L 359.0 316.0 L 358.0 317.0 L 355.0 317.0 L 354.0 318.0 L 349.0 319.0 L 346.0 321.0 L 344.0 321.0 L 340.0 323.0 L 335.0 327.0 L 334.0 327.0 L 329.0 332.0 L 329.0 333.0 L 327.0 335.0 L 325.0 339.0 L 325.0 341.0 L 324.0 342.0 L 324.0 347.0 L 323.0 348.0 L 323.0 351.0 L 324.0 352.0 L 324.0 356.0 L 325.0 357.0 L 326.0 362.0 L 328.0 364.0 L 328.0 365.0 L 334.0 371.0 L 335.0 371.0 L 337.0 373.0 L 341.0 375.0 L 343.0 375.0 L 347.0 377.0 L 351.0 377.0 L 352.0 378.0 L 369.0 378.0 L 370.0 377.0 L 374.0 377.0 L 375.0 376.0 L 378.0 376.0 L 379.0 375.0 L 384.0 374.0 L 390.0 371.0 L 395.0 367.0 L 396.0 367.0 L 400.0 363.0 L 401.0 363.0 L 402.0 361.0 L 403.0 362.0 L 403.0 364.0 L 404.0 365.0 L 404.0 367.0 L 406.0 371.0 L 410.0 375.0 L 414.0 377.0 L 417.0 377.0 L 418.0 378.0 L 426.0 378.0 L 427.0 377.0 L 430.0 377.0 L 431.0 376.0 L 433.0 376.0 L 435.0 374.0 L 438.0 373.0 L 441.0 370.0 L 441.0 369.0 L 439.0 369.0 L 438.0 370.0 L 433.0 370.0 L 429.0 368.0 L 427.0 366.0 L 426.0 364.0 L 426.0 362.0 L 425.0 361.0 L 425.0 298.0 L 424.0 297.0 L 424.0 292.0 L 423.0 291.0 L 423.0 288.0 L 420.0 282.0 L 418.0 280.0 L 418.0 279.0 L 412.0 273.0 L 411.0 273.0 L 409.0 271.0 L 403.0 268.0 L 401.0 268.0 L 397.0 266.0 L 394.0 266.0 L 393.0 265.0 L 387.0 265.0 L 386.0 264.0 L 371.0 264.0 L 370.0 265.0 L 363.0 265.0 L 362.0 266.0 L 355.0 267.0 L 354.0 268.0 L 352.0 268.0 L 351.0 269.0 L 348.0 269.0 L 345.0 271.0 Z"/>
  <path d="M 821.0 269.0 L 821.0 270.0 L 823.0 270.0 L 827.0 272.0 L 829.0 274.0 L 832.0 280.0 L 832.0 285.0 L 833.0 286.0 L 833.0 358.0 L 832.0 359.0 L 832.0 365.0 L 831.0 366.0 L 831.0 368.0 L 826.0 374.0 L 821.0 376.0 L 821.0 377.0 L 866.0 377.0 L 866.0 376.0 L 861.0 374.0 L 857.0 370.0 L 856.0 368.0 L 856.0 366.0 L 855.0 365.0 L 855.0 362.0 L 854.0 361.0 L 854.0 292.0 L 863.0 283.0 L 864.0 283.0 L 866.0 281.0 L 874.0 277.0 L 876.0 277.0 L 877.0 276.0 L 880.0 276.0 L 881.0 275.0 L 897.0 275.0 L 898.0 276.0 L 900.0 276.0 L 901.0 277.0 L 903.0 277.0 L 905.0 278.0 L 907.0 280.0 L 908.0 280.0 L 913.0 285.0 L 918.0 295.0 L 918.0 300.0 L 919.0 301.0 L 919.0 361.0 L 918.0 362.0 L 918.0 365.0 L 917.0 366.0 L 917.0 368.0 L 916.0 370.0 L 912.0 374.0 L 907.0 376.0 L 907.0 377.0 L 952.0 377.0 L 952.0 376.0 L 947.0 374.0 L 944.0 371.0 L 941.0 365.0 L 941.0 361.0 L 940.0 360.0 L 940.0 296.0 L 939.0 295.0 L 939.0 291.0 L 938.0 290.0 L 938.0 288.0 L 937.0 287.0 L 937.0 285.0 L 935.0 281.0 L 933.0 279.0 L 933.0 278.0 L 927.0 272.0 L 926.0 272.0 L 924.0 270.0 L 918.0 267.0 L 916.0 267.0 L 915.0 266.0 L 912.0 266.0 L 911.0 265.0 L 906.0 265.0 L 905.0 264.0 L 896.0 264.0 L 895.0 265.0 L 889.0 265.0 L 888.0 266.0 L 885.0 266.0 L 884.0 267.0 L 879.0 268.0 L 871.0 272.0 L 865.0 277.0 L 864.0 277.0 L 855.0 286.0 L 854.0 285.0 L 854.0 264.0 L 852.0 264.0 L 851.0 265.0 L 845.0 265.0 L 844.0 266.0 L 838.0 266.0 L 837.0 267.0 L 831.0 267.0 L 830.0 268.0 L 824.0 268.0 L 823.0 269.0 Z"/>
  <path d="M 144.0 227.0 L 130.0 227.0 L 129.0 228.0 L 117.0 228.0 L 117.0 360.0 L 116.0 361.0 L 116.0 366.0 L 115.0 367.0 L 115.0 369.0 L 113.0 373.0 L 109.0 377.0 L 108.0 377.0 L 107.0 379.0 L 153.0 379.0 L 153.0 378.0 L 151.0 377.0 L 147.0 373.0 L 145.0 369.0 L 145.0 366.0 L 144.0 365.0 Z"/>
  <path d="M 580.0 264.0 L 567.0 264.0 L 566.0 265.0 L 555.0 265.0 L 553.0 264.0 L 553.0 265.0 L 557.0 267.0 L 559.0 270.0 L 559.0 278.0 L 558.0 279.0 L 558.0 281.0 L 523.0 351.0 L 488.0 281.0 L 488.0 279.0 L 487.0 278.0 L 487.0 275.0 L 486.0 273.0 L 487.0 272.0 L 487.0 269.0 L 490.0 266.0 L 491.0 266.0 L 492.0 264.0 L 490.0 265.0 L 489.0 264.0 L 459.0 264.0 L 458.0 265.0 L 453.0 264.0 L 452.0 265.0 L 452.0 266.0 L 456.0 268.0 L 461.0 273.0 L 461.0 274.0 L 463.0 276.0 L 486.0 323.0 L 488.0 325.0 L 488.0 327.0 L 514.0 379.0 L 516.0 379.0 L 567.0 277.0 L 569.0 275.0 L 569.0 274.0 L 576.0 267.0 L 579.0 266.0 Z"/>
  <path d="M 488.0 171.0 L 488.0 172.0 L 490.0 172.0 L 491.0 171.0 L 507.0 171.0 L 508.0 172.0 L 521.0 172.0 L 522.0 173.0 L 528.0 173.0 L 529.0 174.0 L 534.0 174.0 L 535.0 175.0 L 538.0 175.0 L 539.0 176.0 L 546.0 177.0 L 552.0 180.0 L 557.0 181.0 L 563.0 184.0 L 565.0 186.0 L 568.0 187.0 L 571.0 190.0 L 572.0 190.0 L 580.0 198.0 L 580.0 199.0 L 582.0 201.0 L 582.0 204.0 L 583.0 205.0 L 582.0 207.0 L 577.0 212.0 L 576.0 212.0 L 565.0 223.0 L 564.0 223.0 L 557.0 230.0 L 556.0 230.0 L 549.0 237.0 L 549.0 238.0 L 551.0 237.0 L 553.0 237.0 L 581.0 223.0 L 583.0 221.0 L 586.0 220.0 L 588.0 218.0 L 592.0 216.0 L 595.0 216.0 L 596.0 215.0 L 600.0 215.0 L 601.0 214.0 L 606.0 213.0 L 613.0 209.0 L 615.0 209.0 L 617.0 208.0 L 619.0 206.0 L 620.0 206.0 L 630.0 195.0 L 631.0 195.0 L 636.0 191.0 L 648.0 185.0 L 650.0 185.0 L 653.0 183.0 L 655.0 183.0 L 656.0 182.0 L 658.0 182.0 L 662.0 180.0 L 665.0 180.0 L 666.0 179.0 L 669.0 179.0 L 670.0 178.0 L 674.0 178.0 L 675.0 177.0 L 680.0 177.0 L 681.0 176.0 L 687.0 176.0 L 688.0 175.0 L 705.0 175.0 L 705.0 174.0 L 702.0 174.0 L 701.0 173.0 L 696.0 173.0 L 695.0 172.0 L 685.0 172.0 L 684.0 171.0 L 669.0 171.0 L 668.0 172.0 L 660.0 172.0 L 659.0 173.0 L 654.0 173.0 L 653.0 174.0 L 649.0 174.0 L 645.0 176.0 L 642.0 176.0 L 641.0 177.0 L 636.0 178.0 L 633.0 180.0 L 631.0 180.0 L 628.0 182.0 L 626.0 182.0 L 616.0 187.0 L 612.0 190.0 L 606.0 190.0 L 605.0 191.0 L 603.0 191.0 L 593.0 182.0 L 585.0 178.0 L 581.0 175.0 L 579.0 175.0 L 576.0 173.0 L 574.0 173.0 L 571.0 171.0 L 569.0 171.0 L 565.0 169.0 L 562.0 169.0 L 561.0 168.0 L 558.0 168.0 L 557.0 167.0 L 553.0 167.0 L 552.0 166.0 L 546.0 166.0 L 545.0 165.0 L 516.0 165.0 L 515.0 166.0 L 509.0 166.0 L 508.0 167.0 L 504.0 167.0 L 503.0 168.0 L 499.0 168.0 L 498.0 169.0 L 495.0 169.0 L 494.0 170.0 L 490.0 170.0 Z"/>
  <path d="M 638.0 264.0 L 635.0 264.0 L 634.0 265.0 L 628.0 265.0 L 627.0 266.0 L 622.0 266.0 L 621.0 267.0 L 615.0 267.0 L 614.0 268.0 L 608.0 268.0 L 607.0 269.0 L 605.0 269.0 L 605.0 270.0 L 608.0 270.0 L 612.0 273.0 L 616.0 281.0 L 616.0 364.0 L 612.0 372.0 L 608.0 375.0 L 606.0 375.0 L 605.0 377.0 L 650.0 377.0 L 650.0 376.0 L 648.0 375.0 L 646.0 375.0 L 640.0 369.0 L 640.0 367.0 L 639.0 366.0 L 639.0 363.0 L 638.0 362.0 Z"/>
  <path style="fill:rgb(255, 255, 255)" d="M 757.0 317.0 L 757.0 355.0 L 753.0 359.0 L 752.0 359.0 L 750.0 361.0 L 742.0 365.0 L 740.0 365.0 L 736.0 367.0 L 731.0 367.0 L 730.0 368.0 L 721.0 368.0 L 720.0 367.0 L 716.0 367.0 L 715.0 366.0 L 710.0 365.0 L 708.0 363.0 L 707.0 363.0 L 701.0 357.0 L 700.0 355.0 L 700.0 353.0 L 699.0 352.0 L 699.0 341.0 L 700.0 340.0 L 700.0 338.0 L 701.0 336.0 L 704.0 333.0 L 704.0 332.0 L 710.0 327.0 L 720.0 322.0 L 722.0 322.0 L 723.0 321.0 L 726.0 321.0 L 730.0 319.0 L 734.0 319.0 L 735.0 318.0 L 740.0 318.0 L 741.0 317.0 L 747.0 317.0 L 748.0 316.0 L 756.0 316.0 Z"/>
  <path style="fill:rgb(255, 255, 255)" d="M 403.0 317.0 L 403.0 355.0 L 398.0 360.0 L 386.0 366.0 L 383.0 366.0 L 382.0 367.0 L 377.0 367.0 L 376.0 368.0 L 368.0 368.0 L 367.0 367.0 L 362.0 367.0 L 361.0 366.0 L 359.0 366.0 L 355.0 364.0 L 353.0 362.0 L 352.0 362.0 L 349.0 359.0 L 349.0 358.0 L 346.0 354.0 L 346.0 351.0 L 345.0 350.0 L 345.0 343.0 L 346.0 342.0 L 346.0 339.0 L 348.0 335.0 L 355.0 328.0 L 356.0 328.0 L 358.0 326.0 L 364.0 323.0 L 366.0 323.0 L 367.0 322.0 L 369.0 322.0 L 373.0 320.0 L 380.0 319.0 L 381.0 318.0 L 386.0 318.0 L 387.0 317.0 L 394.0 317.0 L 395.0 316.0 L 402.0 316.0 Z"/>
  <path d="M 279.0 163.0 L 275.0 159.0 L 275.0 158.0 L 261.0 144.0 L 260.0 144.0 L 253.0 138.0 L 247.0 135.0 L 245.0 133.0 L 239.0 130.0 L 237.0 130.0 L 232.0 127.0 L 230.0 127.0 L 229.0 126.0 L 227.0 126.0 L 226.0 125.0 L 224.0 125.0 L 220.0 123.0 L 217.0 123.0 L 216.0 122.0 L 212.0 122.0 L 211.0 121.0 L 203.0 121.0 L 202.0 120.0 L 182.0 120.0 L 181.0 121.0 L 175.0 121.0 L 174.0 122.0 L 170.0 122.0 L 169.0 123.0 L 166.0 123.0 L 165.0 124.0 L 163.0 124.0 L 162.0 125.0 L 159.0 125.0 L 153.0 128.0 L 151.0 128.0 L 141.0 133.0 L 139.0 135.0 L 136.0 136.0 L 134.0 138.0 L 130.0 140.0 L 126.0 144.0 L 125.0 144.0 L 112.0 157.0 L 112.0 158.0 L 106.0 165.0 L 106.0 166.0 L 104.0 168.0 L 102.0 173.0 L 100.0 175.0 L 97.0 181.0 L 97.0 183.0 L 95.0 186.0 L 95.0 188.0 L 94.0 190.0 L 96.0 190.0 L 97.0 189.0 L 103.0 189.0 L 107.0 184.0 L 108.0 181.0 L 110.0 179.0 L 112.0 175.0 L 116.0 171.0 L 116.0 170.0 L 131.0 155.0 L 132.0 155.0 L 135.0 152.0 L 136.0 152.0 L 144.0 146.0 L 158.0 139.0 L 160.0 139.0 L 163.0 137.0 L 165.0 137.0 L 166.0 136.0 L 169.0 136.0 L 170.0 135.0 L 173.0 135.0 L 174.0 134.0 L 177.0 134.0 L 178.0 133.0 L 183.0 133.0 L 184.0 132.0 L 194.0 132.0 L 195.0 131.0 L 203.0 131.0 L 204.0 132.0 L 214.0 132.0 L 215.0 133.0 L 220.0 133.0 L 221.0 134.0 L 225.0 134.0 L 226.0 135.0 L 229.0 135.0 L 230.0 136.0 L 232.0 136.0 L 233.0 137.0 L 235.0 137.0 L 236.0 138.0 L 241.0 139.0 L 257.0 147.0 L 259.0 149.0 L 263.0 151.0 L 266.0 154.0 L 267.0 154.0 L 270.0 157.0 L 271.0 157.0 L 278.0 164.0 L 279.0 164.0 Z"/>
  <path d="M 192.0 12.0 L 192.0 20.0 L 191.0 21.0 L 191.0 32.0 L 190.0 33.0 L 190.0 46.0 L 189.0 47.0 L 189.0 65.0 L 188.0 66.0 L 188.0 88.0 L 189.0 89.0 L 189.0 99.0 L 196.0 99.0 L 196.0 87.0 L 197.0 86.0 L 197.0 65.0 L 196.0 64.0 L 196.0 51.0 L 195.0 50.0 L 195.0 37.0 L 194.0 36.0 L 194.0 25.0 L 193.0 24.0 L 193.0 12.0 Z"/>
  <path d="M 623.0 222.0 L 619.0 224.0 L 616.0 227.0 L 615.0 229.0 L 615.0 232.0 L 614.0 233.0 L 614.0 236.0 L 615.0 237.0 L 615.0 239.0 L 616.0 241.0 L 619.0 244.0 L 623.0 246.0 L 630.0 246.0 L 634.0 243.0 L 635.0 243.0 L 638.0 239.0 L 638.0 229.0 L 636.0 227.0 L 636.0 226.0 L 633.0 223.0 L 631.0 222.0 Z"/>
  <path d="M 99.0 53.0 L 114.0 83.0 L 114.0 85.0 L 117.0 89.0 L 122.0 100.0 L 126.0 105.0 L 127.0 108.0 L 129.0 110.0 L 131.0 114.0 L 133.0 115.0 L 135.0 113.0 L 136.0 113.0 L 137.0 111.0 L 131.0 99.0 L 129.0 97.0 L 125.0 89.0 L 122.0 86.0 L 122.0 85.0 L 120.0 83.0 L 120.0 82.0 L 118.0 80.0 L 118.0 79.0 L 116.0 77.0 L 116.0 76.0 L 114.0 74.0 L 112.0 70.0 L 109.0 67.0 L 109.0 66.0 L 107.0 64.0 L 107.0 63.0 L 105.0 61.0 L 103.0 57.0 L 100.0 54.0 L 100.0 53.0 Z"/>
  <path d="M 34.0 118.0 L 35.0 120.0 L 36.0 120.0 L 38.0 122.0 L 39.0 122.0 L 41.0 124.0 L 45.0 126.0 L 48.0 129.0 L 52.0 131.0 L 55.0 134.0 L 56.0 134.0 L 58.0 136.0 L 59.0 136.0 L 61.0 138.0 L 62.0 138.0 L 73.0 146.0 L 87.0 153.0 L 89.0 153.0 L 91.0 150.0 L 91.0 148.0 L 90.0 148.0 L 87.0 145.0 L 86.0 145.0 L 78.0 139.0 L 52.0 126.0 L 50.0 126.0 Z"/>
  <path d="M 265.0 63.0 L 264.0 63.0 L 263.0 66.0 L 261.0 68.0 L 256.0 79.0 L 254.0 81.0 L 245.0 99.0 L 244.0 104.0 L 242.0 107.0 L 242.0 110.0 L 245.0 112.0 L 247.0 111.0 L 254.0 97.0 L 254.0 95.0 L 255.0 94.0 L 256.0 89.0 L 258.0 86.0 L 258.0 84.0 L 259.0 83.0 L 259.0 81.0 L 260.0 80.0 L 260.0 78.0 L 261.0 77.0 L 261.0 75.0 L 262.0 74.0 L 262.0 72.0 L 263.0 71.0 L 263.0 69.0 L 264.0 68.0 L 264.0 65.0 Z"/>
  </g>
</svg>
